<?xml version="1.0" standalone="no"?>
<!DOCTYPE svg PUBLIC "-//W3C//DTD SVG 20010904//EN"
 "http://www.w3.org/TR/2001/REC-SVG-20010904/DTD/svg10.dtd">
<svg version="1.0" xmlns="http://www.w3.org/2000/svg"
 width="512.000000pt" height="512.000000pt" viewBox="0 0 512.000000 512.000000"
 preserveAspectRatio="xMidYMid meet">
<metadata>
Created by potrace 1.14, written by Peter Selinger 2001-2017
</metadata>
<g transform="translate(0.000000,512.000000) scale(0.100000,-0.100000)"
fill="#000000" stroke="none">
<path d="M2098 4878 l-177 -183 -1 -307 0 -308 125 0 125 0 0 -44 0 -44 -532
2 -533 1 -3 -117 -3 -118 -129 0 -130 0 0 -225 0 -225 58 0 57 0 85 -85 85
-85 402 0 403 0 0 -135 0 -135 -275 0 -274 0 -3 -117 -3 -118 -135 -5 -135 -5
-3 -138 -3 -137 -129 0 -130 0 0 -390 0 -390 130 0 130 0 0 -215 c0 -202 1
-215 19 -225 11 -5 74 -10 140 -10 l121 0 0 -135 0 -134 152 -3 153 -3 -4
-117 -3 -117 26 -7 c14 -3 69 -4 121 -1 81 4 97 2 112 -13 10 -10 73 -74 140
-142 67 -67 190 -190 273 -272 l151 -150 147 147 c81 81 150 147 154 147 10 0
135 132 169 180 71 100 69 99 201 100 64 0 123 3 132 6 13 5 16 26 16 125 l0
119 150 0 150 0 0 135 0 134 133 3 132 3 3 223 2 222 130 0 130 0 1 193 c2
319 2 408 0 500 l-1 87 -130 0 -130 0 0 140 0 140 -135 0 -134 0 -3 123 -3
122 -277 -3 -278 -4 0 136 0 136 408 0 407 0 78 85 78 85 62 0 62 0 0 223 0
222 -127 -1 -127 -1 -3 121 -3 121 -535 0 -535 1 -3 42 -3 42 115 0 116 0 0
310 0 311 -178 179 -178 180 -210 0 -210 0 -176 -182z"/>
</g>
</svg>
